<svg version="1.2" xmlns="http://www.w3.org/2000/svg" viewBox="0 0 256 256" width="256" height="256"><style>.a{fill:#581c87}</style><path class="a" d="m240 94c0 70-103.8 126.7-108.2 129q-0.9 0.5-1.8 0.7-1 0.3-2 0.3-1 0-2-0.3-0.9-0.2-1.8-0.7c-4.4-2.3-108.2-59-108.2-129 0-8.1 1.6-16.2 4.7-23.7 3.2-7.5 7.7-14.4 13.5-20.1 5.7-5.8 12.6-10.3 20.1-13.5 7.5-3.1 15.6-4.7 23.7-4.7 20.7 0 38.7 8.9 50 23.9 11.3-15 29.3-23.9 50-23.9 8.1 0 16.2 1.6 23.7 4.7 7.5 3.2 14.4 7.7 20.1 13.5 5.8 5.7 10.3 12.6 13.5 20.1 3.1 7.5 4.7 15.6 4.7 23.7z"/></svg>